<svg width="15" height="15" viewBox="0 0 15 15" fill="none" xmlns="http://www.w3.org/2000/svg">
<path d="M7.5 6.35348L1.38474 0.23822C1.06941 -0.0771101 0.55355 -0.0786409 0.23822 0.23822C-0.0801716 0.556612 -0.0786409 1.06788 0.23822 1.38474L6.35348 7.5L0.23822 13.6153C-0.0771101 13.9306 -0.0786409 14.4465 0.23822 14.7618C0.556612 15.0802 1.06788 15.0786 1.38474 14.7618L7.5 8.64652L13.6153 14.7618C13.9306 15.0771 14.4465 15.0786 14.7618 14.7618C15.0802 14.4434 15.0786 13.9321 14.7618 13.6153L8.64652 7.5L14.7618 1.38474C15.0771 1.06941 15.0786 0.55355 14.7618 0.23822C14.4434 -0.0801716 13.9321 -0.0786409 13.6153 0.23822L7.5 6.35348Z" fill="white"/>
</svg>
